<svg xmlns="http://www.w3.org/2000/svg" viewBox="0 0 24 24" fill="none" stroke="currentColor" stroke-width="1.5" stroke-linecap="round" stroke-linejoin="round">
  <path d="M12 2C8.5 2 5.5 4.5 5 8c-.3 2 .5 4 2 5.5"/>
  <path d="M19 8c-.5-3.5-3.5-6-7-6"/>
  <path d="M17 13.5c1.5-1.5 2.3-3.5 2-5.5"/>
  <circle cx="12" cy="12" r="3" fill="currentColor" opacity="0.3"/>
  <path d="M12 15v4"/>
  <path d="M9 22h6"/>
  <path d="M8 9.5c-.5.5-1.5 2-1 3.5.5 1.5 2 2.5 3.5 2.8"/>
  <path d="M16 9.5c.5.5 1.5 2 1 3.5-.5 1.5-2 2.5-3.5 2.8"/>
</svg>
